<svg width="46" height="46" viewBox="0 0 46 46" fill="none" xmlns="http://www.w3.org/2000/svg">
<g clip-path="url(#clip0_979_949)">
<path d="M43.125 20.125H25.875V33.5416H43.125V20.125Z" stroke="#69C350" stroke-width="2.5" stroke-linecap="round" stroke-linejoin="round"/>
<path d="M34.5 29.7084V25.875" stroke="#69C350" stroke-width="2.5" stroke-linecap="round" stroke-linejoin="round"/>
<path d="M28.75 20.1252V18.2085C28.75 15.0326 31.326 12.4585 34.5 12.4585C37.674 12.4585 40.25 15.0326 40.25 18.2085V20.1252" stroke="#69C350" stroke-width="2.5" stroke-linecap="round" stroke-linejoin="round"/>
<path fill-rule="evenodd" clip-rule="evenodd" d="M35.4582 24.9168C35.4582 25.4458 35.0289 25.8752 34.4999 25.8752C33.9709 25.8752 33.5415 25.4458 33.5415 24.9168C33.5415 24.3878 33.9709 23.9585 34.4999 23.9585C35.0289 23.9585 35.4582 24.3878 35.4582 24.9168Z" stroke="#69C350" stroke-width="2.5" stroke-linejoin="round"/>
<path d="M22.0415 4.7915H37.3749V9.58318" stroke="#69C350" stroke-width="2.5" stroke-linecap="round" stroke-linejoin="round"/>
<path d="M37.3749 37.415V41.2081H22.0415" stroke="#69C350" stroke-width="2.5" stroke-linecap="round" stroke-linejoin="round"/>
<path fill-rule="evenodd" clip-rule="evenodd" d="M4.7915 41.2085L22.0415 45.0418V0.958496L4.7915 4.79183V41.2085Z" stroke="#69C350" stroke-width="2.5" stroke-linecap="round" stroke-linejoin="round"/>
<path d="M15.3335 26.8335C16.9213 26.8335 18.2085 25.5463 18.2085 23.9585C18.2085 22.3707 16.9213 21.0835 15.3335 21.0835C13.7457 21.0835 12.4585 22.3707 12.4585 23.9585C12.4585 25.5463 13.7457 26.8335 15.3335 26.8335Z" stroke="#69C350" stroke-width="2.5" stroke-linecap="round" stroke-linejoin="round"/>
</g>
<defs>
<clipPath id="clip0_979_949">
<rect width="46" height="46" fill="white"/>
</clipPath>
</defs>
</svg>
