<svg width="46" height="46" viewBox="0 0 46 46" fill="none" xmlns="http://www.w3.org/2000/svg">
<path d="M23.0045 32.6101C29.8974 32.6101 35.4851 27.0224 35.4851 20.1295C35.4851 13.2367 29.8974 7.64893 23.0045 7.64893C16.1117 7.64893 10.5239 13.2367 10.5239 20.1295C10.5239 27.0224 16.1117 32.6101 23.0045 32.6101Z" stroke="#69C350" stroke-width="2.5"/>
<path d="M17.6558 31.7188V36.1761H28.3535V31.7188" stroke="#69C350" stroke-width="2.5" stroke-linejoin="round"/>
<path d="M26.5703 36.1758H19.4385V39.7417H26.5703V36.1758Z" stroke="#69C350" stroke-width="2.5" stroke-linejoin="round"/>
<path d="M23.0044 39.7417V43.3076" stroke="#69C350" stroke-width="2.5" stroke-linecap="round" stroke-linejoin="round"/>
<path d="M23.0044 2.2998V4.08275" stroke="#69C350" stroke-width="2.5" stroke-linecap="round" stroke-linejoin="round"/>
<path d="M35.6116 7.52246L34.3511 8.78298" stroke="#69C350" stroke-width="2.5" stroke-linecap="round" stroke-linejoin="round"/>
<path d="M40.8337 20.1294H39.0508" stroke="#69C350" stroke-width="2.5" stroke-linecap="round" stroke-linejoin="round"/>
<path d="M35.6116 32.7366L34.3511 31.4761" stroke="#69C350" stroke-width="2.5" stroke-linecap="round" stroke-linejoin="round"/>
<path d="M10.3975 7.52246L11.658 8.78298" stroke="#69C350" stroke-width="2.5" stroke-linecap="round" stroke-linejoin="round"/>
<path d="M5.1748 20.1294H6.95776" stroke="#69C350" stroke-width="2.5" stroke-linecap="round" stroke-linejoin="round"/>
<path d="M10.3975 32.7366L11.658 31.4761" stroke="#69C350" stroke-width="2.5" stroke-linecap="round" stroke-linejoin="round"/>
<path d="M23.8958 31.7185L26.169 21.8677C26.4044 20.8515 27.3101 20.1294 28.3532 20.1294C29.3391 20.1294 30.1361 20.9263 30.1361 21.9123C30.1361 22.8983 29.3391 23.6953 28.3532 23.6953H23.0043H17.6555C16.6695 23.6953 15.8726 22.8983 15.8726 21.9123C15.8726 20.9263 16.6695 20.1294 17.6555 20.1294C18.6985 20.1294 19.6043 20.8497 19.8396 21.8677L22.1129 31.7185" stroke="#69C350" stroke-width="2.5" stroke-linecap="round" stroke-linejoin="round"/>
</svg>
