<svg width="46" height="46" viewBox="0 0 46 46" fill="none" xmlns="http://www.w3.org/2000/svg">
<path d="M18.5917 38.4294C18.5454 39.8889 17.9449 41.2759 16.9124 42.3084C15.8799 43.3409 14.4929 43.9414 13.0334 43.9878C11.5593 43.9878 10.1455 43.4022 9.10309 42.3598C8.06068 41.3174 7.4751 39.9036 7.4751 38.4294C7.4751 36.9553 8.06068 35.5415 9.10309 34.4991C10.1455 33.4567 11.5593 32.8711 13.0334 32.8711H18.5917V38.4294Z" stroke="#69C350" stroke-width="2.5" stroke-linejoin="round"/>
<path d="M38.9722 31.0183C38.9258 32.4778 38.3253 33.8648 37.2928 34.8973C36.2602 35.9298 34.8733 36.5303 33.4138 36.5767C31.9396 36.5767 30.5259 35.991 29.4835 34.9487C28.4411 33.9063 27.8555 32.4925 27.8555 31.0183C27.8555 29.5441 28.4411 28.1304 29.4835 27.088C30.5259 26.0456 31.9396 25.46 33.4138 25.46H38.9722V31.0183Z" stroke="#69C350" stroke-width="2.5" stroke-linejoin="round"/>
<path d="M18.5918 32.8707V10.6373L38.9724 2.2998V25.4595" stroke="#69C350" stroke-width="2.5" stroke-linejoin="round"/>
<path d="M18.5918 17.1222L38.9724 8.78467" stroke="#69C350" stroke-width="2.5" stroke-linejoin="round"/>
</svg>
