<svg width="46" height="46" viewBox="0 0 46 46" fill="none" xmlns="http://www.w3.org/2000/svg">
<path d="M25.5877 30.3552V6.42085C25.5877 5.48042 25.2141 4.57852 24.5491 3.91355C23.8842 3.24858 22.9822 2.875 22.0418 2.875C21.1014 2.875 20.1995 3.24858 19.5345 3.91355C18.8696 4.57852 18.496 5.48042 18.496 6.42085V30.3552C17.144 31.1358 16.0874 32.3406 15.49 33.7829C14.8926 35.2252 14.7878 36.8243 15.1919 38.3322C15.5959 39.8401 16.4862 41.1726 17.7247 42.123C18.9632 43.0733 20.4807 43.5885 22.0418 43.5885C23.603 43.5885 25.1204 43.0733 26.359 42.123C27.5975 41.1726 28.4878 39.8401 28.8919 38.3322C29.2959 36.8243 29.1911 35.2252 28.5937 33.7829C27.9963 32.3406 26.9397 31.1358 25.5877 30.3552Z" stroke="#69C350" stroke-width="2.5" stroke-linecap="round" stroke-linejoin="round"/>
<path d="M22.0415 38.3334C23.0206 38.3334 23.8144 37.5397 23.8144 36.5605C23.8144 35.5813 23.0206 34.7876 22.0415 34.7876C21.0623 34.7876 20.2686 35.5813 20.2686 36.5605C20.2686 37.5397 21.0623 38.3334 22.0415 38.3334Z" stroke="#69C350" stroke-width="2.5" stroke-linecap="round" stroke-linejoin="round"/>
<path d="M22.0415 34.7877V15.2856" stroke="#69C350" stroke-width="2.5" stroke-linecap="round" stroke-linejoin="round"/>
<path d="M29.1333 6.4209H30.9063" stroke="#69C350" stroke-width="2.5" stroke-linecap="round" stroke-linejoin="round"/>
<path d="M29.1333 15.2856H34.4521" stroke="#69C350" stroke-width="2.5" stroke-linecap="round" stroke-linejoin="round"/>
<path d="M29.1333 24.1499H30.9063" stroke="#69C350" stroke-width="2.5" stroke-linecap="round" stroke-linejoin="round"/>
</svg>
